<svg xmlns="http://www.w3.org/2000/svg" height="800" width="1200" viewBox="-149.85 -75.81525 1298.7 454.8915" fill="currentColor">
    <g transform="translate(-65 -1152.708)">
        <path d="M65 1367.22v-210.07h36.901v210.068zm131.36-152.398c-47.312 0-80.053 36.377-80.053 78.014 0 46.47 35.618 78.481 80.42 78.481 42.52 0 79.417-31.423 79.417-78.581 0-39.656-30.574-77.914-79.785-77.914zm-.435 35.598c24.76 0 42.984 19.273 42.984 42.55 0 24.68-20.093 42.683-42.316 42.683-26.258 0-42.783-20.812-42.783-42.617 0-23.9 18.657-42.616 42.115-42.616zm172.933-35.598c-47.312 0-80.052 36.377-80.052 78.014 0 46.47 35.618 78.481 80.42 78.481 42.52 0 79.417-31.423 79.417-78.581 0-27.77-12.026-40.093-12.026-40.093l10.228-3.507v-29.949h-52.41s-11.362-4.364-25.577-4.364zm-.434 35.598c24.76 0 42.984 19.273 42.984 42.55 0 24.68-20.093 42.683-42.316 42.683-26.258 0-42.784-20.812-42.784-42.617 0-23.9 18.658-42.616 42.116-42.616zm42.723 127.067c0 24.68-20.093 42.817-42.316 42.817-26.258 0-42.85-21.012-42.85-42.817h-37.436c0 46.47 35.618 78.482 80.42 78.482 42.52 0 79.417-31.323 79.417-78.482zm52.276-10.267v-148.033h36.901v148.032zm72.733 0v-114.875h-19.788v-33.158h19.788v-45.457h36.9v45.457h20.323v33.158h-20.322v114.874z" />
        <circle r="19.317" cy="386.789" cx="467.789" transform="translate(-109.936 687.873) scale(1.26496)" />
        <path d="M676.34 1214.722c-47.537 0-78.181 36.396-78.181 79.451 0 44.493 30.746 77.245 78.95 77.245 44.964 0 67.083-28.077 67.083-28.077l-24.668-24.701s-18.625 20.088-41.948 20.088c-19.442 0-34.987-10.851-40.41-30.75h114.98v-10.162c0-40.544-23.466-83.094-75.807-83.094zm-1.17 32.49c16.998 0 34.383 9.093 38.27 30.817h-77.277c3.06-15.27 16.42-30.818 39.006-30.818zm169.277 124.225c-47.67 0-80.152-36.308-80.152-79.117 0-44.178 36.71-77.626 80-77.626 41.847 0 63.268 29.543 63.268 29.543l-25.742 25.624s-14.911-19.265-37.702-19.265c-25.26 0-42.531 19.322-42.531 42.291 0 24.252 18.373 42.86 42.247 42.86 23.158 0 37.95-19.236 37.95-19.236l26 25.612s-21.213 29.314-63.338 29.314zm76.763-4.111v-210.71h36.9v77.416s14.13-19.338 44.865-19.338c38.64 0 61.025 28.724 61.025 65.46v87.172h-36.901v-81.595c0-24.68-15.366-34.92-32.388-34.92-19.394 0-36.6 11.038-36.6 36.83v79.685z" />
    </g>
</svg>